<svg width="24" height="23" viewBox="0 0 24 23" fill="none" xmlns="http://www.w3.org/2000/svg">
<g filter="url(#filter0_d_1_33)">
<path d="M17 16.5C17.5304 16.5 18.0391 16.7107 18.4142 17.0858C18.7893 17.4609 19 17.9696 19 18.5C19 19.0304 18.7893 19.5391 18.4142 19.9142C18.0391 20.2893 17.5304 20.5 17 20.5C16.4696 20.5 15.9609 20.2893 15.5858 19.9142C15.2107 19.5391 15 19.0304 15 18.5C15 17.39 15.89 16.5 17 16.5ZM1 0.5H4.27L5.21 2.5H20C20.2652 2.5 20.5196 2.60536 20.7071 2.79289C20.8946 2.98043 21 3.23478 21 3.5C21 3.67 20.95 3.84 20.88 4L17.3 10.47C16.96 11.08 16.3 11.5 15.55 11.5H8.1L7.2 13.13L7.17 13.25C7.17 13.3163 7.19634 13.3799 7.24322 13.4268C7.29011 13.4737 7.3537 13.5 7.42 13.5H19V15.5H7C6.46957 15.5 5.96086 15.2893 5.58579 14.9142C5.21071 14.5391 5 14.0304 5 13.5C5 13.15 5.09 12.82 5.24 12.54L6.6 10.09L3 2.5H1V0.5ZM7 16.5C7.53043 16.5 8.03914 16.7107 8.41421 17.0858C8.78929 17.4609 9 17.9696 9 18.5C9 19.0304 8.78929 19.5391 8.41421 19.9142C8.03914 20.2893 7.53043 20.5 7 20.5C6.46957 20.5 5.96086 20.2893 5.58579 19.9142C5.21071 19.5391 5 19.0304 5 18.5C5 17.39 5.89 16.5 7 16.5ZM16 9.5L18.78 4.5H6.14L8.5 9.5H16Z" fill="#191411"/>
<path d="M4.75749 2.71268L4.89253 3H5.21H20C20.1326 3 20.2598 3.05268 20.3536 3.14645C20.4473 3.24021 20.5 3.36739 20.5 3.5C20.5 3.57114 20.4794 3.66332 20.4304 3.77974L16.8633 10.2266C16.8632 10.2267 16.8631 10.2269 16.863 10.2271C16.6072 10.6856 16.1104 11 15.55 11H8.1H7.80492L7.66229 11.2583L6.76229 12.8883L6.73075 12.9454L6.71493 13.0087L6.68493 13.1287L6.67 13.1884V13.25C6.67 13.4489 6.74902 13.6397 6.88967 13.7803C7.03032 13.921 7.22109 14 7.42 14H18.5V15H7C6.60218 15 6.22064 14.842 5.93934 14.5607C5.65804 14.2794 5.5 13.8978 5.5 13.5C5.5 13.2368 5.5675 12.9887 5.67911 12.7792L7.03716 10.3327L7.16191 10.108L7.05176 9.87573L3.45176 2.28573L3.31624 2H3H1.5V1H3.95253L4.75749 2.71268ZM16 10H16.2941L16.437 9.74297L19.217 4.74297L19.6301 4H18.78H6.14H5.3511L5.68784 4.71342L8.04784 9.71342L8.1831 10H8.5H16ZM17 17C17.3978 17 17.7794 17.158 18.0607 17.4393C18.342 17.7206 18.5 18.1022 18.5 18.5C18.5 18.8978 18.342 19.2794 18.0607 19.5607C17.7794 19.842 17.3978 20 17 20C16.6022 20 16.2206 19.842 15.9393 19.5607C15.658 19.2794 15.5 18.8978 15.5 18.5C15.5 17.6661 16.1661 17 17 17ZM7 17C7.39782 17 7.77936 17.158 8.06066 17.4393C8.34196 17.7206 8.5 18.1022 8.5 18.5C8.5 18.8978 8.34196 19.2794 8.06066 19.5607C7.77936 19.842 7.39782 20 7 20C6.60218 20 6.22064 19.842 5.93934 19.5607C5.65804 19.2794 5.5 18.8978 5.5 18.5C5.5 17.6661 6.16614 17 7 17Z" stroke="black"/>
</g>
<defs>
<filter id="filter0_d_1_33" x="-3" y="0.5" width="28" height="28" filterUnits="userSpaceOnUse" color-interpolation-filters="sRGB">
<feFlood flood-opacity="0" result="BackgroundImageFix"/>
<feColorMatrix in="SourceAlpha" type="matrix" values="0 0 0 0 0 0 0 0 0 0 0 0 0 0 0 0 0 0 127 0" result="hardAlpha"/>
<feOffset dy="4"/>
<feGaussianBlur stdDeviation="2"/>
<feComposite in2="hardAlpha" operator="out"/>
<feColorMatrix type="matrix" values="0 0 0 0 0 0 0 0 0 0 0 0 0 0 0 0 0 0 0.25 0"/>
<feBlend mode="normal" in2="BackgroundImageFix" result="effect1_dropShadow_1_33"/>
<feBlend mode="normal" in="SourceGraphic" in2="effect1_dropShadow_1_33" result="shape"/>
</filter>
</defs>
</svg>
